<?xml version="1.0" encoding="UTF-8"?><svg id="Layer_2" xmlns="http://www.w3.org/2000/svg" viewBox="0 0 186.05 133.87"><defs><style>.cls-1{fill:#251605;stroke-width:0px;}</style></defs><g id="Layer_1-2"><path class="cls-1" d="M185.33,78.23c0-.11,0-.22-.02-.33-1.11-11.27-7.77-24.78-22.89-31.96l10.6-2.37c2.68-.6,4.37-3.27,3.77-5.95-.6-2.68-3.27-4.38-5.95-3.77l-22.59,5.05c-2.53.57-4.21,3-3.84,5.57l3.33,23.02c.35,2.48,2.48,4.27,4.92,4.27.24,0,.47-.02.72-.05,2.72-.4,4.61-2.92,4.21-5.64l-1.75-12.12c11.4,4.52,17.14,13.37,18.99,21.5.7,4.34,1.06,7.63,1.13,10.75-.44,16.62-6.04,22.22-17.17,30.12l-.47.27c-9.55,6.28-22.79,8.37-36.16,7.02-13.31-1.34-22.99-6.08-27.07-9.71l-1.05-.88c-4.89-5.37-5.81-12.29-6.15-15.05-.19-1.59-.4-5.27-.68-7.32-.23-1.69-.6-3.35-.96-5.01-.03-.14-.07-.27-.13-.39-.22-.49-.46-.96-.71-1.43-2.43-4.52-5.63-8.09-9.62-10.7-.61-.4-1.22-.77-1.84-1.11-1.28-.7-1.24-2.55.06-3.21,2.71-1.38,5.23-3.12,7.57-5.23,3.61-3.25,6.41-7.23,8.4-11.94,1.99-4.71,2.99-9.88,2.99-15.48,0-6.88-1.59-13.06-4.76-18.54-3.17-5.48-7.56-9.78-13.16-12.9-5.6-3.12-11.95-4.69-19.04-4.69H8.52c-.15,0-.29.02-.44.06-.34.09-.7.16-1.08.22-1.52.22-2.74.32-3.91,1.49C1.06,3.78.59,7.06.03,9.98c-.02.11-.03.22-.03.34v117.76c0,1.52.59,2.86,1.77,4.01,1.18,1.15,2.71,1.72,4.57,1.72,2.52,0,4.29-1.39,5.31-4.19.07-.2.11-.42.11-.63v-50.54c0-.99.78-1.8,1.75-1.8h39.69c2.61,0,5.38.35,8.31,1.05,2.93.7,5.6,1.92,8.03,3.63,2.43,1.72,4.42,4.18,5.97,7.36.22.46.43.95.62,1.44.22.29.4.64.54,1.05.24.75.39,1.33.44,1.6.25,1.64,1.14,9.9,1.22,10.6,0,0,.82,7.75,8.66,16.2.56.6,1.13,1.18,1.71,1.73.32.3.65.59.97.87,4.01,3.27,9.62,6.13,16.15,8.2,6.86,2.18,14.76,3.49,22.89,3.49,11.69,0,23.88-1.3,34.24-8.04,8.64-4.47,14.08-11.55,17.41-17.83,5.28-9.32,6.76-19.51,4.97-29.77ZM68.52,61.84c-3.71,2.46-7.66,3.9-11.86,4.29-.06,0-.12,0-.19,0H21.33c-5.28,0-9.57-4.39-9.57-9.8v-28.16c0-9.34,7.39-16.9,16.51-16.9h26.8c7.72,0,13.97,2.39,18.76,7.17,4.79,4.78,7.19,10.8,7.19,18.06,0,5.74-1.15,10.77-3.45,15.1-2.3,4.33-5.32,7.74-9.06,10.23Z"/><path class="cls-1" d="M135.22,48.82c-.3.05-19.92,3.29-25.62,16.5-3.25,7.53-1.54,17.22,5.08,28.88l1.72-8.56c.54-2.69,3.16-4.44,5.86-3.9,2.69.54,4.44,3.16,3.9,5.86l-3.13,15.6-.08.25c-1.26,4.03-5.03,6.79-9.24,6.79h-.65s-14.98-2.83-14.98-2.83c-2.71-.51-4.48-3.11-3.97-5.82.5-2.7,3.11-4.48,5.81-3.97l5.89,1.11c-8.07-14.42-9.87-26.97-5.34-37.41,7.94-18.3,32.21-22.19,33.23-22.35,2.72-.42,5.26,1.45,5.67,4.17.42,2.71-1.45,5.25-4.16,5.67Z"/></g></svg>