<?xml version="1.0" encoding="UTF-8"?><svg id="Layer_2" xmlns="http://www.w3.org/2000/svg" viewBox="0 0 477.53 113.74"><defs><style>.cls-1{fill:#000;}.cls-1,.cls-2{stroke-width:0px;}.cls-2{fill:#45b900;}</style></defs><g id="Layer_1-2"><path class="cls-2" d="M227.24,33.29c-.74-.84-1.65-1.3-2.74-1.4,1.08.11,1.98.57,2.71,1.4.84.95,1.26,2.06,1.26,3.32v44.6c0,.33,0,.65.01.97,0-.32,0-.64,0-.97v-44.6c0-1.27-.42-2.37-1.26-3.32ZM220.81,33.29c-.35.42-.62.86-.8,1.34.2-.47.48-.92.85-1.34.68-.77,1.51-1.23,2.48-1.37-1.04.14-1.88.6-2.53,1.37Z"/><path class="cls-2" d="M280.55,36.61v44.6c0,10.44-2.76,18.4-8.28,23.88-5.52,5.48-12.97,8.22-22.34,8.22s-16.64-2.74-22.12-8.22c-1.45-1.46-2.71-3.08-3.78-4.89-1.08,1.81-2.35,3.44-3.82,4.89-5.52,5.48-12.97,8.22-22.34,8.22s-16.64-2.74-22.12-8.22c-5.47-5.48-8.21-13.44-8.21-23.88v-44.6c0-1.27.42-2.37,1.26-3.32.84-.95,1.9-1.42,3.18-1.42s2.34.47,3.18,1.42c.84.95,1.26,2.06,1.26,3.32v44.6c0,7.59,1.9,13.36,5.7,17.32,3.8,3.95,9.05,5.93,15.76,5.93s12.13-1.98,15.98-5.93c3.67-3.77,5.59-9.21,5.75-16.31v-.04c0-.32.01-.64.01-.97v-44.6c0-.71.12-1.37.38-1.98.2-.47.48-.92.85-1.34.68-.77,1.51-1.23,2.48-1.37.23-.04.46-.05.7-.05.16,0,.32,0,.47.02,1.08.11,1.98.57,2.71,1.4.84.95,1.26,2.06,1.26,3.32v44.6c0,.33,0,.65.01.97,0,.02,0,.03,0,.04.16,7.1,2.06,12.53,5.68,16.31,3.8,3.95,9.05,5.93,15.76,5.93s12.13-1.98,15.98-5.93c3.85-3.95,5.77-9.73,5.77-17.32v-44.6c0-1.27.39-2.37,1.18-3.32.79-.95,1.87-1.42,3.25-1.42,1.28,0,2.34.47,3.18,1.42.84.95,1.26,2.06,1.26,3.32Z"/><path class="cls-2" d="M331.48,113.74c-7.38,0-14.18-1.58-20.4-4.75-6.22-3.16-11.18-7.81-14.87-13.93-3.69-6.12-5.54-13.52-5.54-22.2V5.36c0-2.96,2.48-5.36,5.54-5.36h0c3.06,0,5.54,2.4,5.54,5.36v44.39h.32c1.79-3.47,4.27-6.56,7.43-9.26,3.16-2.7,6.75-4.82,10.75-6.35,4.01-1.53,8.22-2.3,12.65-2.3,7.28,0,13.89,1.63,19.85,4.9,5.96,3.27,10.73,7.88,14.31,13.85,3.58,5.97,5.38,13.14,5.38,21.51,0,6.53-1.05,12.38-3.16,17.53-2.11,5.15-5.04,9.52-8.78,13.09-3.74,3.57-8.09,6.3-13.05,8.19-4.96,1.89-10.28,2.83-15.97,2.83ZM331.32,104.4c5.38,0,10.33-1.25,14.87-3.75,4.53-2.5,8.17-6.12,10.91-10.87,2.74-4.75,4.11-10.43,4.11-17.07s-1.37-12.02-4.11-16.76c-2.74-4.75-6.35-8.39-10.83-10.95-4.48-2.55-9.36-3.83-14.63-3.83s-10.18,1.25-14.71,3.75c-4.53,2.5-8.17,6.1-10.91,10.79-2.74,4.7-4.11,10.41-4.11,17.15s1.34,12.45,4.03,17.15c2.69,4.7,6.27,8.27,10.75,10.72,4.48,2.45,9.36,3.67,14.63,3.67Z"/><path class="cls-2" d="M408.49,113.27c-3.1,0-5.61-2.51-5.61-5.61v-41.97c0-7.47,1.68-13.91,5.05-19.3,3.36-5.39,7.87-9.56,13.54-12.49,5.66-2.94,11.91-4.41,18.74-4.41s13.22,1.47,18.82,4.41c5.61,2.94,10.09,7.1,13.46,12.49,3.36,5.39,5.05,11.83,5.05,19.3v41.97c0,3.1-2.51,5.61-5.61,5.61h0c-3.1,0-5.61-2.51-5.61-5.61v-41.49c0-5.66-1.23-10.49-3.68-14.5-2.46-4-5.69-7.07-9.69-9.21-4-2.14-8.3-3.2-12.9-3.2s-8.71,1.04-12.66,3.12c-3.95,2.08-7.16,5.13-9.61,9.13-2.46,4-3.68,8.89-3.68,14.66v41.49c0,3.1-2.51,5.61-5.61,5.61h0Z"/><path class="cls-1" d="M148.11,63.9c.23.99.38,1.97.48,2.91.02.21.06.42.11.62v-2.59c0-.34.04-.68.12-1l-.71.06Z"/><path class="cls-1" d="M75.96,103.5c-.29-.23-.57-.47-.84-.71l.02-.03c.27.25.55.5.82.74Z"/><path class="cls-2" d="M114.55,41.36c-.26.04-16.87,2.79-21.7,13.99-2.75,6.38-1.3,14.59,4.3,24.46l1.45-7.25c.46-2.28,2.68-3.76,4.97-3.31,2.28.46,3.76,2.68,3.31,4.97l-2.65,13.21-.06.21c-1.07,3.42-4.26,5.76-7.83,5.76-.07,0-.14,0-.21,0h-.34s-12.69-2.4-12.69-2.4c-2.29-.43-3.8-2.64-3.36-4.92.43-2.29,2.63-3.8,4.92-3.36l4.99.94c-6.84-12.21-8.36-22.85-4.52-31.69,6.73-15.5,27.28-18.8,28.15-18.93,2.3-.35,4.45,1.23,4.8,3.53.35,2.3-1.23,4.45-3.53,4.8Z"/><path class="cls-2" d="M156.87,69.37l-.06-1.71c.02-.07.04-.14.06-.22v-2.41c-.07-.53-.15-1.06-.25-1.59h0c-1.62-8.97-7.35-18.98-19.03-24.53l8.98-2.01c2.28-.5,3.7-2.76,3.2-5.03-.51-2.28-2.76-3.71-5.04-3.2l-19.13,4.28c-2.15.48-3.57,2.54-3.26,4.72l2.82,19.5c.3,2.1,2.11,3.61,4.17,3.61.2,0,.4,0,.61-.04,2.3-.33,3.9-2.47,3.56-4.78l-1.48-10.27c9.67,3.83,14.53,11.33,16.09,18.21,1.29,16.36-1.58,26.31-14.12,34.09l-.4.23c-8.08,5.32-18.77,7.62-30.1,6.48-11.28-1.14-19.48-5.15-22.93-8.23l-.89-.74c-4.14-4.55-4.92-10.41-5.21-12.75-.16-1.35-.33-4.46-.57-6.2-.2-1.43-.51-2.83-.82-4.24-.02-.12-.06-.23-.11-.33-.19-.41-.39-.81-.6-1.21-2.05-3.83-4.77-6.85-8.14-9.07-.52-.34-1.04-.65-1.56-.94-1.09-.6-1.05-2.16.04-2.72,2.3-1.17,4.44-2.65,6.42-4.44,3.06-2.75,5.43-6.12,7.12-10.11,1.68-3.99,2.53-8.37,2.53-13.12,0-5.83-1.35-11.06-4.04-15.7-2.69-4.64-6.4-8.29-11.15-10.93C58.84,1.32,53.46,0,47.45,0H7.22c-.12,0-.25.01-.37.05-.29.07-.59.13-.91.18-1.3.18-2.32.27-3.32,1.26C.9,3.2.5,5.98.03,8.45c-.02.09-.03.19-.03.28v99.76c0,1.29.51,2.42,1.51,3.4,1,.97,2.29,1.45,3.87,1.45,2.14,0,3.63-1.18,4.5-3.54.06-.17.09-.36.09-.54v-42.81c0-.84.66-1.52,1.48-1.52h33.63c2.21,0,4.56.3,7.04.89,2.47.59,4.74,1.62,6.8,3.08,2.05,1.45,3.74,3.53,5.06,6.23.19.39.36.8.52,1.22.19.24.34.54.45.89.2.63.34,1.12.37,1.35.21,1.39.97,8.39,1.04,8.98,0,0,.69,6.57,7.33,13.72.47.51.96,1,1.45,1.47.27.25.55.5.82.74,3.4,2.77,8.15,5.19,13.68,6.94,5.82,1.85,12.51,2.96,19.39,2.96,9.9,0,20.23-2.3,29.01-8.01,4.52-2.33,8-5.05,10.66-8.04v11.78c0,2.25,1.83,4.08,4.08,4.08s4.09-1.83,4.09-4.08v-34.85c.06-1.64.05-3.28,0-4.91ZM58.05,52.38c-3.14,2.09-6.49,3.3-10.05,3.64h-29.92c-4.48,0-8.11-3.71-8.11-8.3v-23.85c0-7.91,6.26-14.32,13.98-14.32h22.71c6.54,0,11.84,2.03,15.9,6.07,4.05,4.05,6.08,9.15,6.08,15.3,0,4.86-.97,9.13-2.92,12.8-1.95,3.67-4.51,6.56-7.67,8.66Z"/><path class="cls-2" d="M156.87,64.84v.19c-.07-.53-.15-1.06-.25-1.59.16.44.25.91.25,1.4Z"/><path class="cls-2" d="M156.87,67.44v1.93l-.06-1.71c.02-.07.04-.14.06-.22Z"/><path class="cls-2" d="M393.58,37.12c-.03.95-.08,1.87-.08,2.67v68.61c0,2.01-1.34,3.92-3.19,4.58-1.55.56-3.38.22-4.64-.88-2.62-2.27-1.66-8.37-1.66-11.66v-62.35c0-.34,0-.69-.02-1.04-6.93-1.89-16.92-7.78-16.61-26.02,0-.02.01-.03.03-.03.67-.08,14.09-1.44,22.06,16.75.01.03.05.03.06,0,.4-1.34,5.49-17.63,22.07-16.27.02,0,.03.02.03.03.03.82.46,19.66-18.05,25.59Z"/></g></svg>