<svg xmlns="http://www.w3.org/2000/svg" xmlns:xlink="http://www.w3.org/1999/xlink" width="1920" zoomAndPan="magnify" viewBox="0 0 1440 809.999993" height="1080" preserveAspectRatio="xMidYMid meet" version="1.0"><defs><clipPath id="303aa9f2d2"><path d="M 370 191.65625 L 1070 191.65625 L 1070 618.40625 L 370 618.40625 Z M 370 191.65625 " clip-rule="nonzero"/></clipPath><clipPath id="d40699479b"><path d="M 895.636719 451.742188 L 956.558594 451.742188 L 956.558594 511.046875 L 895.636719 511.046875 Z M 895.636719 451.742188 " clip-rule="nonzero"/></clipPath><clipPath id="6334f2d5a3"><path d="M 920.617188 451.972656 L 931.597656 451.972656 C 938.160156 451.972656 944.457031 454.578125 949.097656 459.21875 C 953.738281 463.863281 956.347656 470.15625 956.347656 476.722656 L 956.347656 486.296875 C 956.347656 492.859375 953.738281 499.15625 949.097656 503.796875 C 944.457031 508.4375 938.160156 511.046875 931.597656 511.046875 L 920.617188 511.046875 C 914.050781 511.046875 907.757812 508.4375 903.117188 503.796875 C 898.472656 499.15625 895.867188 492.859375 895.867188 486.296875 L 895.867188 476.722656 C 895.867188 470.15625 898.472656 463.863281 903.117188 459.21875 C 907.757812 454.578125 914.050781 451.972656 920.617188 451.972656 Z M 920.617188 451.972656 " clip-rule="nonzero"/></clipPath><clipPath id="3d304e828c"><path d="M 0.679688 0.921875 L 61.398438 0.921875 L 61.398438 60.046875 L 0.679688 60.046875 Z M 0.679688 0.921875 " clip-rule="nonzero"/></clipPath><clipPath id="e10152619a"><path d="M 25.617188 0.972656 L 36.597656 0.972656 C 43.160156 0.972656 49.457031 3.578125 54.097656 8.21875 C 58.738281 12.863281 61.347656 19.15625 61.347656 25.722656 L 61.347656 35.296875 C 61.347656 41.859375 58.738281 48.15625 54.097656 52.796875 C 49.457031 57.4375 43.160156 60.046875 36.597656 60.046875 L 25.617188 60.046875 C 19.050781 60.046875 12.757812 57.4375 8.117188 52.796875 C 3.472656 48.15625 0.867188 41.859375 0.867188 35.296875 L 0.867188 25.722656 C 0.867188 19.15625 3.472656 12.863281 8.117188 8.21875 C 12.757812 3.578125 19.050781 0.972656 25.617188 0.972656 Z M 25.617188 0.972656 " clip-rule="nonzero"/></clipPath><clipPath id="384127eff8"><rect x="0" width="62" y="0" height="61"/></clipPath></defs><g clip-path="url(#303aa9f2d2)"><path fill="#fff9e7" d="M 719.953125 351.394531 C 719.953125 351.394531 643.925781 632.746094 370.160156 609.90625 C 370.160156 609.90625 354.988281 267.699219 704.78125 191.671875 C 704.78125 191.671875 1077.414062 176.5 1069.828125 617.492188 C 1069.828125 617.492188 849.25 647.917969 719.953125 351.394531 Z M 719.953125 351.394531 " fill-opacity="1" fill-rule="nonzero"/></g><g clip-path="url(#d40699479b)"><g clip-path="url(#6334f2d5a3)"><g transform="matrix(1, 0, 0, 1, 895, 451)"><g clip-path="url(#384127eff8)"><g clip-path="url(#3d304e828c)"><g clip-path="url(#e10152619a)"><path fill="#fff9e7" d="M 0.867188 0.972656 L 61.328125 0.972656 L 61.328125 60.046875 L 0.867188 60.046875 Z M 0.867188 0.972656 " fill-opacity="1" fill-rule="nonzero"/></g></g></g></g></g></g></svg>